# xmcd
#
# Track frame offsets: 
#        150
#        11453
#        23358
#        35431
#        50486
#        64264
#        75940
#        105062
#        116417
#        129044
#        142336
#        156294
#        166749
#        179324
#        194567
#        207108
#        219788
#        234385
#        246980
#        261371
#
# Disc length: 3666 seconds
#
# Revision: 0
# Processed by: cddbd v1.5.2PL0 Copyright (c) Steve Scherf et al.
# Submitted via: ExactAudioCopy v0.99pb5
#
DISCID=fd0e5014
DTITLE=Ray Charles - The Absolutely Essential Collection CD1
DYEAR=2010
DGENRE=Blues
TTITLE0=Confession Blues
TTITLE1=Sitting On Top Of The World
TTITLE2=Leave My Woman Alone
TTITLE3=Drown In My Own Tears
TTITLE4=All To Myself
TTITLE5=How Long Blues
TTITLE6=What I'd Say Pts. 1&2
TTITLE7=She's On The Ball
TTITLE8=You'll Never Miss The Water (Until The Well Runs Dry)
TTITLE9=Alone In The City
TTITLE10=Come Back Baby
TTITLE11=I Wonder Who's Kissing Her Now
TTITLE12=I Got A Break, Baby
TTITLE13=Sinner's Prayer
TTITLE14=I've Had My Fun
TTITLE15=The Snow Is Falling
TTITLE16=Funny (But I Still Love You)
TTITLE17=Blues Before Sunrise
TTITLE18=Losing Hand
TTITLE19=A Fool For You
EXTD=
EXTT0=
EXTT1=
EXTT2=
EXTT3=
EXTT4=
EXTT5=
EXTT6=
EXTT7=
EXTT8=
EXTT9=
EXTT10=
EXTT11=
EXTT12=
EXTT13=
EXTT14=
EXTT15=
EXTT16=
EXTT17=
EXTT18=
EXTT19=
PLAYORDER=
